<svg xmlns="http://www.w3.org/2000/svg" fill="none" focusable="false" viewBox="0 0 32 32"><path d="M23.0346 19.8149C22.4493 19.8149 21.9432 20.02 21.5097 20.4301C21.0761 20.8402 20.8668 21.3422 20.8668 21.9361V22.0423C20.9102 22.615 21.1484 23.0957 21.5675 23.4845C21.9866 23.8734 22.4782 24.0644 23.0346 24.0644C23.6415 24.0644 24.1545 23.8523 24.5736 23.4281C24.9927 23.0039 25.2023 22.5088 25.2023 21.9361C25.2023 21.3422 24.9927 20.8402 24.5736 20.4301C24.1545 20.02 23.6343 19.8149 23.0346 19.8149ZM9.42127 19.8149C8.83598 19.8149 8.32992 20.02 7.89637 20.4301C7.46282 20.8402 7.25353 21.3422 7.25353 21.9361C7.25353 22.5088 7.47005 23.0039 7.89637 23.4281C8.32992 23.8523 8.83598 24.0644 9.42127 24.0644C10.0282 24.0644 10.5412 23.8523 10.9603 23.4281C11.3794 23.0039 11.589 22.5088 11.589 21.9361C11.589 21.3422 11.3794 20.8402 10.9603 20.4301C10.5412 20.02 10.0282 19.8149 9.42127 19.8149ZM9.42127 25.125C8.5325 25.125 7.77384 24.8138 7.13075 24.1845C6.48765 23.5552 6.16966 22.8058 6.16966 21.9432C6.16966 21.0735 6.48765 20.3311 7.13075 19.7018C7.77384 19.0725 8.5325 18.7614 9.42127 18.7614C9.95598 18.7614 10.4618 18.8816 10.9243 19.122C11.3867 19.3624 11.7767 19.6806 12.0801 20.0837C12.3836 20.4867 12.5717 20.925 12.644 21.3987H19.819C19.9562 20.6422 20.3394 20.02 20.9536 19.518C21.5678 19.016 22.2686 18.7614 23.0346 18.7614C23.8511 18.7614 24.5594 19.0231 25.1663 19.5463C25.7733 20.0695 26.1346 20.7129 26.2502 21.4624H27.3701C28.3961 21.4624 28.9091 20.9392 28.9091 19.8857V8.68561H17.6082C16.9289 8.68561 16.3145 8.89074 15.7509 9.30084H15.7149L11.3434 12.0088C11.2062 12.0795 11.0616 12.0937 10.9243 12.0583C10.787 12.023 10.664 11.9522 10.5701 11.8391C10.505 11.7048 10.4831 11.5635 10.5193 11.4291C10.5554 11.2877 10.6279 11.1817 10.7507 11.0827L15.1222 8.417C15.8953 7.89377 16.7194 7.625 17.6082 7.625H29.4362C29.6024 7.625 29.7328 7.67447 29.8412 7.78053C29.9496 7.8866 30 8.01391 30 8.17654V19.8857C30 20.7059 29.769 21.3493 29.2993 21.823C28.8368 22.2897 28.1936 22.523 27.3771 22.523H26.2573C26.12 23.2796 25.7444 23.9017 25.1374 24.3896C24.5304 24.8846 23.8294 25.125 23.0346 25.125C22.2397 25.125 21.5386 24.8775 20.9388 24.3684C20.3318 23.8664 19.9562 23.23 19.819 22.4523H12.644C12.5283 23.2017 12.1596 23.8381 11.5382 24.3542C10.9168 24.8704 10.2089 25.125 9.42127 25.125ZM2.56381 22.4523C2.39762 22.4523 2.26716 22.4028 2.15877 22.2967C2.05038 22.1907 2 22.0775 2 21.9361V19.0231C2 18.3867 2.07937 17.8917 2.24556 17.5523C2.40453 17.2129 2.70076 16.9018 3.11986 16.626L6.61774 14.3988C6.68277 14.3564 6.79094 14.328 6.92823 14.328H21.0327L25.0217 12.8926C25.159 12.8502 25.3035 12.8573 25.4408 12.928C25.5781 12.9987 25.6718 13.0977 25.7224 13.2391C25.7657 13.3734 25.7586 13.5149 25.6864 13.6493C25.6214 13.7907 25.5132 13.8754 25.3759 13.9249L21.3149 15.3674C21.2932 15.3674 21.2643 15.3745 21.2281 15.3815C21.192 15.3957 21.163 15.3957 21.1413 15.3957H7.07288L3.7126 17.5169C3.55363 17.63 3.42337 17.7361 3.32944 17.8421C3.2355 17.9482 3.17081 18.0826 3.13468 18.2523C3.09855 18.422 3.08387 18.6837 3.08387 19.0231V21.9361C3.08387 22.0704 3.03349 22.1907 2.9251 22.2967C2.82394 22.4028 2.7011 22.4523 2.56381 22.4523Z" fill="currentColor"></path></svg>