<svg xmlns="http://www.w3.org/2000/svg" fill="none" focusable="false" viewBox="0 0 32 32"><path d="M6.97452 30H5.9548C5.34767 30 4.85359 29.4785 4.85359 28.8378V28.1249H2.5506C2.40745 28.1249 2.27824 28.0652 2.16739 27.9482C2.05653 27.832 2 27.6957 2 27.5438V9.48171C2 8.76731 2.19088 8.18619 2.56676 7.75384C2.94631 7.31838 3.47341 7.09755 4.13487 7.09755H12.5606V4.72812C12.5606 4.61345 12.5877 4.50497 12.6421 4.40502C12.7015 4.29499 12.7948 4.21983 12.9122 4.18652L18.6143 2.02784C18.6891 1.99219 18.7758 1.99065 18.8712 2.02396C18.9329 2.04566 19.0026 2.06658 19.0775 2.08595L19.1171 2.09602L19.1465 2.12702C19.2199 2.2045 19.2757 2.28431 19.3139 2.36411C19.3557 2.45167 19.3763 2.52838 19.3763 2.59734V7.71122C19.3763 7.86231 19.3198 7.99868 19.2089 8.11568C19.0981 8.23268 18.9586 8.29234 18.7949 8.29234H8.07572V26.9301H23.925V8.29234H23.0587C22.8943 8.29234 22.7548 8.23268 22.6439 8.11568C22.5331 7.99946 22.4773 7.86386 22.4773 7.71122C22.4773 7.53766 22.5338 7.39121 22.6447 7.27344C22.7555 7.15644 22.895 7.09678 23.0587 7.09678H29.4178C29.5815 7.09678 29.7203 7.15644 29.8319 7.27344C29.9427 7.39121 30 7.53921 30 7.71122V25.8066C30 26.5226 29.8143 27.0928 29.4472 27.5027C29.0787 27.9157 28.567 28.1249 27.9275 28.1249H27.1471V28.8347C27.1471 29.4754 26.6531 29.9969 26.0459 29.9969H25.0262C24.4191 29.9969 23.925 29.4754 23.925 28.8347V28.1249H8.07572V28.8378C8.07572 29.4785 7.58165 30 6.97452 30ZM5.92396 28.1249V28.8378C5.92396 28.8556 5.93791 28.8703 5.9548 28.8703H6.97452C6.9914 28.8703 7.00535 28.8556 7.00535 28.8378V28.1249H5.92396ZM24.9946 28.1249V28.8347C24.9946 28.8525 25.0086 28.8672 25.0255 28.8672H26.0452C26.0621 28.8672 26.076 28.8525 26.076 28.8347V28.1249H24.9946ZM24.9946 26.9301H27.9268C28.2381 26.9301 28.4664 26.8395 28.625 26.6535C28.7857 26.4652 28.8665 26.1809 28.8665 25.8066V8.29234H24.9939L24.9946 26.9301ZM3.13277 26.9301H7.00535V8.29234H4.13561C3.78396 8.29234 3.53582 8.38687 3.37724 8.58213C3.215 8.78126 3.13277 9.08422 3.13277 9.48093V26.9301ZM13.6625 7.09755H18.245V3.44035L13.6625 5.1659V7.09755Z" fill="currentColor"></path><path d="M19.4986 22.115H19.3276C19.2776 22.115 19.2277 22.1088 19.1807 22.0956C19.1352 22.084 19.0875 22.0654 19.0405 22.0406L19.02 22.0298L19.0038 22.0127C18.9553 21.9624 18.915 21.9011 18.879 21.826C18.8408 21.7462 18.8217 21.6641 18.8217 21.5819V18.0231C18.8217 17.8643 18.8731 17.7295 18.9752 17.6218C19.0772 17.5141 19.1954 17.4598 19.3276 17.4598H21.8978C22.0475 17.4598 22.1753 17.5141 22.2773 17.6218C22.3794 17.7302 22.4315 17.8651 22.4315 18.0231V20.5607C22.4315 20.6746 22.397 20.7769 22.3287 20.8637C22.2692 20.9388 22.1929 21.0008 22.1019 21.0488L22.0879 21.055L19.5471 22.0639L19.4986 22.115ZM19.8334 18.5562V20.8032L21.3912 20.1895V18.5562H19.8334Z" fill="currentColor"></path><path d="M11.257 23.0189C10.6477 23.0189 10.1242 22.7926 9.70209 22.3463C9.27923 21.9008 9.06486 21.3584 9.06486 20.7347C9.06486 20.0923 9.27923 19.5399 9.70209 19.0936C10.125 18.6473 10.6477 18.421 11.257 18.421C11.8472 18.421 12.3611 18.6473 12.784 19.0936C13.2069 19.5407 13.4212 20.0923 13.4212 20.7347C13.4212 21.3576 13.2069 21.9 12.784 22.3463C12.3611 22.7926 11.8472 23.0189 11.257 23.0189ZM11.257 19.5182C10.9435 19.5182 10.6785 19.6329 10.4472 19.8684C10.2167 20.1024 10.1051 20.3852 10.1051 20.7339C10.1051 21.064 10.2175 21.3429 10.4487 21.587C10.68 21.8311 10.9442 21.9504 11.257 21.9504C11.5683 21.9504 11.8282 21.8326 12.0491 21.5893C12.2723 21.3452 12.381 21.0655 12.381 20.7347C12.381 20.4038 12.2723 20.1241 12.0491 19.8793C11.8274 19.6367 11.5683 19.5182 11.257 19.5182Z" fill="currentColor"></path><path d="M14.3703 17.8847H14.2682C14.1449 17.8847 14.037 17.8506 13.9481 17.7832C13.8534 17.7127 13.7925 17.6088 13.7661 17.4748L12.7141 13.613C12.6891 13.4565 12.7155 13.3163 12.7919 13.1954C12.8638 13.0823 12.9607 12.9986 13.0804 12.9482L13.098 12.942L15.7644 12.2098C15.9127 12.1842 16.0456 12.2121 16.1601 12.2919C16.2724 12.371 16.3458 12.4833 16.373 12.6166L17.4272 16.4822V16.5039C17.4272 16.669 17.3964 16.8046 17.3362 16.9068C17.2731 17.013 17.1798 17.0928 17.0587 17.1439L17.0411 17.1501L14.3703 17.8847ZM13.8696 13.8734L14.6192 16.6938L16.2702 16.2211L15.5207 13.4255L13.8696 13.8734Z" fill="currentColor"></path></svg>