<svg xmlns="http://www.w3.org/2000/svg" fill="none" focusable="false" viewBox="0 0 32 32"><path d="M18.5292 17.9829C18.1974 18.0938 17.8401 18.145 17.4573 18.145C16.2748 18.145 15.4411 17.6674 14.9477 16.7036L13.5526 13.8977C13.4164 13.6759 13.3824 13.4627 13.4675 13.2409C13.5526 12.9936 13.7142 12.8316 13.9609 12.7463L15.322 12.1663C15.6198 12.0555 15.943 12.1152 16.2663 12.3284H16.3088L17.8316 13.693L19.3118 13.1983L16.5556 10.307C16.3939 10.0853 16.3344 9.82091 16.3939 9.5224C16.445 9.24948 16.5981 9.07037 16.8448 8.98508H16.8873L19.0311 8.32837C19.3033 8.24308 19.567 8.26013 19.8137 8.37101L19.9328 8.4563L22.2808 10.3156C22.4169 10.4264 22.4935 10.5714 22.5105 10.7505C22.5275 10.9296 22.4764 11.0917 22.3658 11.2282C22.2552 11.3646 22.1107 11.4414 21.932 11.4584C21.7534 11.4755 21.5917 11.4243 21.4556 11.3134L19.2693 9.58211L18.0358 9.95735L20.9622 13.0533C21.1323 13.2495 21.1663 13.4371 21.0898 13.6333C21.0302 13.855 20.8941 14.0085 20.6729 14.0853L17.8741 15.0746C17.687 15.1599 17.4743 15.1173 17.2531 14.9467L15.6028 13.4627L14.8542 13.7527L16.0876 16.1493C16.2833 16.5075 16.5726 16.7378 16.9724 16.8316C17.3722 16.9254 17.7636 16.9083 18.1464 16.7719L27.9549 13.2239C28.2527 13.1386 28.4739 12.951 28.61 12.6439C28.6951 12.4222 28.7036 12.226 28.6525 12.064C28.6185 11.9531 28.5675 11.8508 28.4909 11.7569C28.4058 11.6631 28.2612 11.6034 28.057 11.5693C27.8529 11.5437 27.5551 11.5949 27.1723 11.7313L25.8112 12.226C25.6496 12.2857 25.4794 12.2687 25.3178 12.1834C25.1476 12.0981 25.0455 11.9787 24.986 11.8166C24.9264 11.6205 24.9435 11.4499 25.0285 11.2964C25.1136 11.1429 25.2327 11.0405 25.4028 10.9894L26.7555 10.4947C27.5296 10.2217 28.1847 10.1876 28.7376 10.4094C29.2821 10.6311 29.6564 11.0405 29.852 11.6461C30.0732 12.1407 30.0477 12.6525 29.7669 13.1727C29.6563 13.4456 29.4777 13.693 29.231 13.9147C28.9843 14.1365 28.7036 14.2985 28.4058 14.4094L18.5632 18H18.5292V17.9829ZM15.9686 30C13.4675 30 11.1365 29.3774 8.96726 28.1237C6.79796 26.87 5.0966 25.1557 3.85458 22.9808C3.5228 23.6375 3.36116 24.2857 3.36116 24.9254C3.33563 25.7783 3.57381 26.5117 4.08423 27.1343C4.59465 27.7569 5.32628 28.2175 6.28757 28.516C6.42369 28.5416 6.54276 28.6354 6.63634 28.7889C6.72992 28.9424 6.75544 29.113 6.69589 29.3007C6.61082 29.5992 6.40667 29.7527 6.0749 29.7527H5.99831C5.96428 29.7527 5.93878 29.7356 5.91326 29.71C4.70527 29.3518 3.76096 28.7463 3.07189 27.8934C2.38282 27.0405 2.05107 26.0512 2.0851 24.9168C2.0851 23.7569 2.4679 22.6055 3.23353 21.4456C3.99916 20.2942 5.07105 19.2708 6.42366 18.3923C7.78479 17.5139 9.36712 16.823 11.1876 16.3284C11.3748 16.3028 11.5449 16.3284 11.681 16.4136C11.8171 16.4989 11.9192 16.6183 11.9703 16.7804C12.0298 16.9424 12.0043 17.113 11.9107 17.2751C11.8171 17.4371 11.681 17.5395 11.5194 17.565C8.4143 18.4179 6.12594 19.791 4.63721 21.693C5.70909 23.8422 7.26587 25.548 9.30756 26.8102C11.3577 28.081 13.5696 28.7122 15.9601 28.7122C18.0783 28.7122 20.0519 28.2175 21.8894 27.2281C23.7269 26.2388 25.2242 24.9254 26.3812 23.2878C27.5296 21.6503 28.2442 19.8422 28.5249 17.855C28.576 17.6589 28.678 17.5139 28.8142 17.42C28.9503 17.3262 29.1034 17.2921 29.2651 17.3177C29.4267 17.3433 29.5628 17.4286 29.6734 17.565C29.784 17.7015 29.8265 17.855 29.801 18.0171C29.4692 20.3284 28.627 22.4009 27.2659 24.2346C25.9047 26.0682 24.2374 27.484 22.2637 28.4904C20.2986 29.4968 18.1974 30 15.9686 30ZM2.74862 18.2729C2.39133 18.2729 2.18718 18.0938 2.12763 17.7356C2.10211 17.4286 2.0681 17.1386 2.04258 16.8486C2.01706 16.5586 2 16.2772 2 16.0043C2 13.3859 2.65505 10.9979 3.97364 8.84008C5.29222 6.67377 7.01063 5.00215 9.12038 3.79959C11.2386 2.59703 13.5185 2 15.9601 2C17.9082 2 19.7797 2.39233 21.5662 3.17698C23.3526 3.96163 24.9009 5.07036 26.2195 6.5032C26.3556 6.63966 26.4152 6.79318 26.4067 6.95522C26.3896 7.11727 26.3216 7.26227 26.177 7.36461C26.0664 7.47549 25.9218 7.53519 25.7431 7.55225C25.5645 7.56931 25.4029 7.50108 25.2667 7.36461C24.0587 6.06824 22.6465 5.06184 21.0302 4.35395C19.4054 3.63754 17.721 3.27932 15.9601 3.27932C13.5696 3.27932 11.4003 3.87635 9.45216 5.07891C7.50405 6.28147 5.98132 7.84223 4.90092 9.76974C3.81203 11.6972 3.27605 13.7783 3.27605 16.0043C3.27605 16.2772 3.27607 16.5501 3.29308 16.8145C3.3101 17.0789 3.32712 17.3262 3.35264 17.5821C3.37816 17.7441 3.34414 17.8977 3.25056 18.0341C3.15698 18.1706 3.01235 18.2559 2.81669 18.2815H2.74862V18.2729Z" fill="currentColor"></path></svg>