<svg width="30px" height="48px" viewBox="0 0 30 48" fill="none" xmlns="http://www.w3.org/2000/svg"><path d="M7.06071 42.7314L11.2886 41.2063C12.1677 40.8874 12.1677 41.5945 12.1677 42.6482V44.5893C12.1677 46.156 11.6375 46.3501 10.9398 46.5996L7.06071 48V42.7314Z" fill="white"></path><path d="M7.06071 34.1493L17.8189 30.2533C18.698 29.9345 18.698 30.6416 18.698 31.6953V33.6224C18.698 35.1891 18.1677 35.3832 17.4701 35.6467L7.07467 39.404V34.1493H7.06071Z" fill="white"></path><path d="M6.18142 21.9209L0.711631 19.9383C8.9407e-07 19.6887 0 18.732 0 18.3854C0 18.3854 8.34465e-07 19.5362 1.06047 19.148L27.8652 9.45666C29.9862 8.69411 29.9862 8.09794 29.0931 7.77905C29.9722 8.09794 29.9722 8.09794 29.9722 10.6767C29.9722 13.1308 29.9722 13.9488 28.9117 14.337L7.92561 21.9209C7.06049 22.2398 7.06049 22.2398 6.18142 21.9209Z" fill="white"></path><path d="M29.107 16.361C29.9861 16.6799 29.9861 17.276 27.8791 18.0386L7.07434 25.567V30.8217L28.9395 22.9189C30 22.5307 30 21.7127 30 19.2587C29.9861 16.6799 29.9861 16.6799 29.107 16.361Z" fill="white"></path><path d="M2.30257 11.9245L11.6654 15.3074L18.9352 12.6731L1.4235 6.3509C0.195588 5.90724 0.0141907 5.83792 0.0141907 6.71138V8.98517C0.0141907 11.1064 1.60489 11.6749 2.30257 11.9245Z" fill="#ABABAB"></path><path d="M29.1075 16.3613L26.2052 15.3076L18.9354 17.9419L23.5401 19.6056L27.8796 18.0389C29.9866 17.2764 29.9866 16.6802 29.1075 16.3613Z" fill="#ABABAB"></path><path d="M29.107 7.77895C29.107 7.77895 9.71156 0.763484 8.48365 0.319819C7.25573 -0.123847 7.07434 -0.193169 7.07434 0.680298V2.95408C7.07434 5.0615 8.66504 5.62994 9.36272 5.87951L23.5395 11.0094L27.8791 9.4427C29.986 8.69401 29.986 8.09783 29.107 7.77895Z" fill="#ABABAB"></path><path d="M1.07466 19.1479L7.07468 16.985L1.4235 14.9469C0.195588 14.5033 0.0141907 14.4339 0.0141907 15.3074V18.3853C0.0141907 18.3853 0.0141915 19.5361 1.07466 19.1479Z" fill="#ABABAB"></path></svg>